<svg xmlns="http://www.w3.org/2000/svg" viewBox="-30.0 -770.0 4046.5 828.0" width="235" height="48" fill="none">
<g transform="scale(1,-1)" fill="#3ba6f1">
<path transform="translate(0,0)" d="M302 -9Q249 -9 210.0 3.0Q171 15 145.5 40.0Q120 65 107.5 103.0Q95 141 95 192V580Q95 603 99.0 622.5Q103 642 122.0 654.5Q141 667 186 667Q230 667 249.0 653.5Q268 640 272.0 619.0Q276 598 276 576V201Q276 190 277.5 182.5Q279 175 282.0 171.0Q285 167 290.0 165.0Q295 163 303 163Q329 163 349.5 159.0Q370 155 381.5 138.0Q393 121 393 81Q393 36 379.0 17.0Q365 -2 344.0 -5.5Q323 -9 302 -9ZM74 493H191L329 498Q351 498 371.5 494.0Q392 490 405.5 471.0Q419 452 419 406Q419 364 405.5 345.0Q392 326 371.5 321.0Q351 316 328 316L201 319H70Q36 321 23.0 341.0Q10 361 10 407Q10 450 26.0 471.5Q42 493 74 493Z"/>
<path transform="translate(429,0)" d="M436 -7Q391 -7 369.5 8.0Q348 23 349 42H363Q358 35 343.5 23.5Q329 12 305.0 2.5Q281 -7 246 -7Q201 -7 159.5 13.5Q118 34 85.5 70.0Q53 106 34.0 151.5Q15 197 15 247Q15 296 34.0 341.0Q53 386 86.0 421.5Q119 457 160.0 477.5Q201 498 246 498Q280 498 303.5 488.0Q327 478 341.5 466.0Q356 454 361 446H350Q349 471 370.5 485.0Q392 499 437 499Q482 499 500.5 485.5Q519 472 523.0 451.0Q527 430 527 408V83Q527 61 523.0 40.0Q519 19 500.5 6.0Q482 -7 436 -7ZM271 174Q290 174 305.5 184.0Q321 194 330.5 210.5Q340 227 340 246Q340 266 330.5 282.0Q321 298 305.0 308.0Q289 318 269 318Q249 318 232.5 308.0Q216 298 206.0 281.5Q196 265 196 245Q196 226 206.5 210.0Q217 194 234.0 184.0Q251 174 271 174Z"/>
<path transform="translate(986,0)" d="M219 -18Q191 -18 156.5 -11.5Q122 -5 89.5 7.5Q57 20 36.0 37.0Q15 54 15 76Q15 86 19.5 98.5Q24 111 32.0 126.0Q40 141 52 158Q59 168 68.5 173.0Q78 178 91 178Q109 178 126.0 170.5Q143 163 160.0 153.5Q177 144 195.5 136.5Q214 129 235 129Q254 129 263.5 133.0Q273 137 273 145Q273 153 266.5 158.0Q260 163 248.5 166.5Q237 170 222.0 173.0Q207 176 190.0 180.0Q173 184 155 190Q132 197 110.0 208.5Q88 220 70.5 239.0Q53 258 42.5 285.0Q32 312 32 351Q32 403 56.0 438.0Q80 473 127.0 491.0Q174 509 243 509Q260 509 277.0 507.0Q294 505 311.5 501.0Q329 497 346.5 490.5Q364 484 382 476Q419 460 420.0 431.5Q421 403 399 372Q387 353 374.5 343.5Q362 334 349 334Q333 334 314.0 343.0Q295 352 274.0 361.0Q253 370 232 370Q220 370 211.5 367.5Q203 365 199.0 360.5Q195 356 195 350Q195 339 202.5 332.5Q210 326 222.5 322.0Q235 318 251.5 315.0Q268 312 287 309Q313 305 340.5 296.5Q368 288 391.0 272.0Q414 256 428.0 228.0Q442 200 442 155Q442 70 385.5 26.0Q329 -18 219 -18Z"/>
<path transform="translate(1443,0)" d="M463 156Q500 123 502.5 93.5Q505 64 469 26Q442 -2 422.5 -10.5Q403 -19 384.0 -10.5Q365 -2 339 21L216 136V81Q216 59 212.0 38.0Q208 17 189.5 4.0Q171 -9 125 -9Q80 -9 61.0 4.5Q42 18 38.5 39.0Q35 60 35 82V639Q35 662 39.0 682.5Q43 703 62.0 716.5Q81 730 126 730Q171 730 189.5 716.5Q208 703 212.0 682.0Q216 661 216 638V362L301 445Q325 468 346.0 476.5Q367 485 387.5 477.5Q408 470 431 445Q470 403 468.5 377.0Q467 351 431 315L350 244Z"/>
<path transform="translate(1955,0)" d="M180 -10Q136 -10 117.0 3.5Q98 17 94.0 38.5Q90 60 90 82V533Q90 565 102.0 599.5Q114 634 139.5 663.5Q165 693 204.5 711.5Q244 730 299 730Q321 730 342.0 726.0Q363 722 376.5 703.5Q390 685 390 639Q390 594 376.0 575.0Q362 556 341.0 552.5Q320 549 298 549Q291 549 286.0 548.0Q281 547 278.0 545.5Q275 544 273.5 541.0Q272 538 272 535V80Q272 58 268.0 37.5Q264 17 244.5 3.5Q225 -10 180 -10ZM69 493H186L324 498Q346 498 366.5 494.0Q387 490 400.5 471.0Q414 452 414 406Q414 364 400.5 345.0Q387 326 366.5 321.0Q346 316 323 316L196 319H65Q31 321 18.0 341.0Q5 361 5 407Q5 450 21.0 471.5Q37 493 69 493Z"/>
<path transform="translate(2374,0)" d="M242 -9Q196 -9 161.5 -5.0Q127 -1 103.0 11.0Q79 23 64.0 45.5Q49 68 42.0 104.5Q35 141 35 196V639Q35 662 39.0 682.5Q43 703 62.0 716.5Q81 730 126 730Q171 730 189.5 716.5Q208 703 212.0 682.0Q216 661 216 638V207Q216 192 216.5 183.5Q217 175 219.5 171.0Q222 167 227.5 166.5Q233 166 243 166Q256 166 270.5 162.5Q285 159 295.5 141.5Q306 124 306 81Q306 36 295.5 17.0Q285 -2 270.0 -5.5Q255 -9 242 -9Z"/>
<path transform="translate(2685,0)" d="M280 -18Q234 -18 187.0 0.5Q140 19 100.5 53.5Q61 88 37.5 136.5Q14 185 14 245Q14 300 35.0 348.0Q56 396 92.5 432.5Q129 469 176.5 490.0Q224 511 278 511Q352 511 412.0 475.5Q472 440 508.0 380.0Q544 320 544 246Q544 183 520.0 134.0Q496 85 457.0 51.0Q418 17 371.5 -0.5Q325 -18 280 -18ZM278 165Q293 165 312.5 172.5Q332 180 346.5 198.0Q361 216 361 247Q361 272 350.5 290.0Q340 308 321.0 318.0Q302 328 277 328Q255 328 237.0 317.5Q219 307 208.0 288.5Q197 270 197 246Q197 216 211.0 198.0Q225 180 244.0 172.5Q263 165 278 165Z"/>
<path transform="translate(3243,0)" d="M235 -12Q203 -12 185.5 1.0Q168 14 160.0 31.0Q152 48 147 59L14 386Q6 414 6.5 433.5Q7 453 20.5 467.0Q34 481 63 492Q109 512 138.5 503.5Q168 495 181 455L235 306L282 435Q286 445 294.0 460.0Q302 475 319.5 487.5Q337 500 367 500Q400 500 418.0 487.5Q436 475 445.0 459.5Q454 444 457 434L503 306L551 439Q568 483 595.5 499.0Q623 515 668 495Q710 476 726.0 449.5Q742 423 724 384L590 59Q585 47 577.0 30.0Q569 13 552.0 0.5Q535 -12 504 -12Q472 -12 455.0 -1.0Q438 10 429.5 26.5Q421 43 415 59L369 182L323 59Q315 38 308.0 22.0Q301 6 285.0 -3.0Q269 -12 235 -12Z"/>
</g>
</svg>